<?xml version="1.0" encoding="UTF-8"?>
<svg version="1.1" xmlns="http://www.w3.org/2000/svg" width="278" height="53">
<path d="M0 0 C47.85 0 95.7 0 145 0 C145 15.18 145 30.36 145 46 C97.15 46 49.3 46 0 46 C0 30.82 0 15.64 0 0 Z " fill="#53BDB9" transform="translate(133,2)"/>
<path d="M0 0 C13 0 13 0 18 3 C22.3305666 7.81174067 23.30067103 11.4108304 23.21875 17.71875 C22.71505108 22.97161012 19.93604245 26.67896418 16 30 C13 31 13 31 0 31 C0 20.77 0 10.54 0 0 Z " fill="#52BFBB" transform="translate(250,9)"/>
<path d="M0 0 C5.07152338 2.53576169 8.85662629 5.78954179 10.79296875 11.2265625 C12.36713814 17.38967418 12.2555173 22.42519259 9 28 C5.9549538 31.33972809 2.46933337 34.72908393 -2.171875 35.23828125 C-8.01846537 35.40659218 -11.43192863 35.02425335 -16 31 C-21.02647617 25.2942703 -21.3474964 21.71771726 -21.28125 14.20703125 C-20.79873953 8.70507163 -18.3721814 6.20882647 -14.375 2.6875 C-9.71860985 -0.62098774 -5.60468123 -0.62082623 0 0 Z M-15 10 C-16.65112454 14.95337361 -16.85967138 19.9639362 -14.8125 24.8125 C-11.91702883 28.30703417 -9.65318336 30.64061231 -5.125 31.625 C-0.70976694 30.74195339 2.0472855 28.34315608 5 25 C6.65112454 20.04662639 6.85967138 15.0360638 4.8125 10.1875 C1.91702883 6.69296583 -0.34681664 4.35938769 -4.875 3.375 C-9.29023306 4.25804661 -12.0472855 6.65684392 -15 10 Z " fill="#000000" transform="translate(119,7)"/>
<path d="M0 0 C1.2065625 0.0309375 1.2065625 0.0309375 2.4375 0.0625 C4.43354587 4.88539274 6.42731562 9.70921745 8.41894531 14.53393555 C9.09735011 16.17644919 9.7763855 17.81870252 10.45605469 19.46069336 C11.43068145 21.81556778 12.40306553 24.17135709 13.375 26.52734375 C13.68123291 27.26589096 13.98746582 28.00443817 14.30297852 28.7653656 C16.4375 33.94862829 16.4375 33.94862829 16.4375 35.0625 C14.4575 35.0625 12.4775 35.0625 10.4375 35.0625 C9.76595067 33.77336513 9.10041141 32.48109796 8.4375 31.1875 C8.06625 30.46820313 7.695 29.74890625 7.3125 29.0078125 C6.4375 27.0625 6.4375 27.0625 6.4375 25.0625 C1.8175 25.0625 -2.8025 25.0625 -7.5625 25.0625 C-7.8925 26.7125 -8.2225 28.3625 -8.5625 30.0625 C-9.19687344 31.7417238 -9.85539322 33.41258418 -10.5625 35.0625 C-12.5425 35.0625 -14.5225 35.0625 -16.5625 35.0625 C-13.33992476 26.3981402 -10.08009503 17.74866899 -6.75 9.125 C-6.44827881 8.33818848 -6.14655762 7.55137695 -5.83569336 6.74072266 C-3.25269084 0.07933392 -3.25269084 0.07933392 0 0 Z M-0.5625 7.0625 C-1.40014268 9.01899397 -2.23249059 10.97775556 -3.0625 12.9375 C-3.5265625 14.02804688 -3.990625 15.11859375 -4.46875 16.2421875 C-5.68302456 18.86911929 -5.68302456 18.86911929 -5.5625 21.0625 C-1.9325 21.0625 1.6975 21.0625 5.4375 21.0625 C3.7875 16.4425 2.1375 11.8225 0.4375 7.0625 C0.1075 7.0625 -0.2225 7.0625 -0.5625 7.0625 Z " fill="#000000" transform="translate(16.5625,6.9375)"/>
<path d="M0 0 C1.65 0 3.3 0 5 0 C5.01458252 0.59949463 5.02916504 1.19898926 5.04418945 1.81665039 C5.11923821 4.56587455 5.21570752 7.31395889 5.3125 10.0625 C5.33505859 11.00544922 5.35761719 11.94839844 5.38085938 12.91992188 C5.60019734 18.64264889 6.18669437 22.96812557 9 28 C12.51824511 30.34549674 13.85775694 30.57991403 18 30 C21.10164769 27.44975635 22.72566416 25.82300753 24 22 C24.14777936 20.30132812 24.24747066 18.59822511 24.31640625 16.89453125 C24.35830078 15.91162109 24.40019531 14.92871094 24.44335938 13.91601562 C24.48267578 12.89185547 24.52199219 11.86769531 24.5625 10.8125 C24.60568359 9.77673828 24.64886719 8.74097656 24.69335938 7.67382812 C24.79944366 5.1160181 24.90150146 2.55811155 25 0 C26.65 0 28.3 0 30 0 C30.08776185 3.68734775 30.14064603 7.37442347 30.1875 11.0625 C30.21263672 12.10083984 30.23777344 13.13917969 30.26367188 14.20898438 C30.33723532 21.93314617 29.61448031 26.84921604 24.5625 32.9375 C20.72613429 35.81477428 16.56427776 35.75279469 11.91796875 35.55078125 C7.44931689 34.70730078 4.56996882 32.73953546 2 29 C-0.71884498 23.27229991 -0.22417641 17.31971116 -0.125 11.125 C-0.11597656 10.05507813 -0.10695312 8.98515625 -0.09765625 7.8828125 C-0.07419342 5.25497561 -0.04136459 2.62760594 0 0 Z " fill="#000000" transform="translate(35,7)"/>
<path d="M0 0 C9.57 0 19.14 0 29 0 C29 1.32 29 2.64 29 4 C25.04 4 21.08 4 17 4 C17 14.23 17 24.46 17 35 C15.35 35 13.7 35 12 35 C12 24.77 12 14.54 12 4 C8.04 4 4.08 4 0 4 C0 2.68 0 1.36 0 0 Z " fill="#000000" transform="translate(68,7)"/>
<path d="M0 0 C0.66 0 1.32 0 2 0 C4.17357444 3.78774694 6.3376772 7.58082029 8.5 11.375 C9.12003906 12.45523437 9.74007812 13.53546875 10.37890625 14.6484375 C10.96542969 15.6796875 11.55195313 16.7109375 12.15625 17.7734375 C12.70087891 18.72653809 13.24550781 19.67963867 13.80664062 20.66162109 C15 23 15 23 15 25 C15.66 25 16.32 25 17 25 C17.27634277 24.27530518 17.55268555 23.55061035 17.83740234 22.80395508 C18.94614076 20.12989782 20.1980148 17.66636868 21.6015625 15.13671875 C22.09140625 14.25048828 22.58125 13.36425781 23.0859375 12.45117188 C23.59382813 11.53916016 24.10171875 10.62714844 24.625 9.6875 C25.140625 8.75615234 25.65625 7.82480469 26.1875 6.86523438 C27.45573517 4.57536531 28.72664162 2.28702285 30 0 C30.99 0 31.98 0 33 0 C33 11.55 33 23.1 33 35 C32.34 35 31.68 35 31 35 C30.67 25.43 30.34 15.86 30 6 C25.80363716 13.23554069 25.80363716 13.23554069 21.62353516 20.48046875 C20.83922119 21.82044922 20.83922119 21.82044922 20.0390625 23.1875 C19.50490723 24.10917969 18.97075195 25.03085937 18.42041016 25.98046875 C17.9516748 26.64691406 17.48293945 27.31335938 17 28 C16.34 28 15.68 28 15 28 C9.06 17.605 9.06 17.605 3 7 C2.67 16.24 2.34 25.48 2 35 C1.34 35 0.68 35 0 35 C0 23.45 0 11.9 0 0 Z " fill="#010101" transform="translate(138,7)"/>
<path d="M0 0 C17.0375 0 17.0375 0 22 4 C25.80011959 8.09243648 26.76185446 11.97218314 27.09765625 17.40234375 C26.88823324 22.97299573 25.53801854 27.42150729 21.625 31.4375 C13.70671926 36.15076234 10.56274121 35 0 35 C0 23.45 0 11.9 0 0 Z M2 2 C2 12.23 2 22.46 2 33 C14.11392398 34.1147408 14.11392398 34.1147408 20 30 C24.3305666 25.18825933 25.30067103 21.5891696 25.21875 15.28125 C24.71505108 10.02838988 21.93604245 6.32103582 18 3 C13.4715658 1.31483984 13.4715658 1.31483984 2 2 Z " fill="#000000" transform="translate(248,7)"/>
<path d="M0 0 C6.93 0 13.86 0 21 0 C21 0.66 21 1.32 21 2 C14.73 2 8.46 2 2 2 C2 6.62 2 11.24 2 16 C7.61 16 13.22 16 19 16 C19 16.66 19 17.32 19 18 C13.39 18 7.78 18 2 18 C2 22.95 2 27.9 2 33 C8.6 33 15.2 33 22 33 C22 33.66 22 34.32 22 35 C14.74 35 7.48 35 0 35 C0 23.45 0 11.9 0 0 Z " fill="#000000" transform="translate(180,7)"/>
<path d="M0 0 C24 24 24 24 24 31 C24.66 31 25.32 31 26 31 C26 20.77 26 10.54 26 0 C26.33 0 26.66 0 27 0 C27 11.55 27 23.1 27 35 C21.37700203 30.50160162 21.37700203 30.50160162 19.1328125 27.42578125 C18.63910156 26.75740234 18.14539063 26.08902344 17.63671875 25.40039062 C16.88841797 24.36688477 16.88841797 24.36688477 16.125 23.3125 C11.83697404 17.46570344 7.45480415 11.72760533 3 6 C2.67 15.57 2.34 25.14 2 35 C1.34 35 0.68 35 0 35 C0 23.45 0 11.9 0 0 Z " fill="#020202" transform="translate(210,7)"/>
<path d="M0 0 C0.99 0 1.98 0 3 0 C3 11.55 3 23.1 3 35 C2.34 35 1.68 35 1 35 C0.67 25.43 0.34 15.86 0 6 C-2.97 11.28 -5.94 16.56 -9 22 C-9.66 21.34 -10.32 20.68 -11 20 C-7.37 13.4 -3.74 6.8 0 0 Z " fill="#191B1B" transform="translate(168,7)"/>
<path d="M0 0 C4.26616423 3.70482683 6.08181972 6.39910027 7 12 C7.08162344 18.42784567 6.26997528 23.10208718 2 28 C1.01 28.33 0.02 28.66 -1 29 C0.14492801 26.71014398 1.29806347 24.50704887 2.625 22.3125 C4.38836189 18.0644009 4.6277116 14.54071901 4 10 C2.65873157 6.73249119 2.65873157 6.73249119 1 4 C0.3125 1.625 0.3125 1.625 0 0 Z " fill="#080809" transform="translate(268,10)"/>
<path d="M0 0 C4.03625076 1.34541692 4.85447953 3.85947465 6.6875 7.4375 C7.00783203 8.03626953 7.32816406 8.63503906 7.65820312 9.25195312 C10 13.71085421 10 13.71085421 10 16 C10.66 16 11.32 16 12 16 C12.66 14.68 13.32 13.36 14 12 C14.33 12.66 14.66 13.32 15 14 C13.6875 16.625 13.6875 16.625 12 19 C11.34 19 10.68 19 10 19 C8.32992313 16.02273264 6.66451428 13.0428803 5 10.0625 C4.28457031 8.78729492 4.28457031 8.78729492 3.5546875 7.48632812 C3.10351562 6.67744141 2.65234375 5.86855469 2.1875 5.03515625 C1.76855469 4.2862915 1.34960938 3.53742676 0.91796875 2.76586914 C0 1 0 1 0 0 Z " fill="#060707" transform="translate(143,16)"/>
</svg>
